<?xml version="1.0" encoding="UTF-8"?>
<!DOCTYPE svg PUBLIC "-//W3C//DTD SVG 1.1//EN" "http://www.w3.org/Graphics/SVG/1.1/DTD/svg11.dtd">
<!-- Creator: CorelDRAW 2020 (64-Bit) -->
<svg xmlns="http://www.w3.org/2000/svg" xml:space="preserve" width="420px" height="695px" version="1.1" style="shape-rendering:geometricPrecision; text-rendering:geometricPrecision; image-rendering:optimizeQuality; fill-rule:evenodd; clip-rule:evenodd"
viewBox="0 0 420 695"
 xmlns:xlink="http://www.w3.org/1999/xlink"
 xmlns:xodm="http://www.corel.com/coreldraw/odm/2003">
 <defs>
  <style type="text/css">
   <![CDATA[
    .str0 {stroke:white;stroke-width:16;stroke-miterlimit:22.9256}
    .str1 {stroke:white;stroke-width:5;stroke-miterlimit:22.9256}
    .fil8 {fill:none}
    .fil0 {fill:#00CF0A}
    .fil9 {fill:white}
    .fil1 {fill:#00B348;fill-opacity:0.788235}
    .fil6 {fill:#A2A6A3;fill-opacity:0.788235}
    .fil3 {fill:#D52A2A;fill-opacity:0.788235}
    .fil4 {fill:#E6E6E6;fill-opacity:0.788235}
    .fil7 {fill:#FBFBFB;fill-opacity:0.788235}
    .fil5 {fill:#FDFDFD;fill-opacity:0.788235}
    .fil2 {fill:white;fill-opacity:0.788235}
   ]]>
  </style>
 </defs>
 <g id="Capa_x0020_1">
  <metadata id="CorelCorpID_0Corel-Layer"/>
  <g id="_2583534523280">
   <rect class="fil0 str0" x="3.752" y="1.921" width="415.327" height="676.499"/>
   <g>
    <path class="fil1" d="M223.185 386.516c2.395,6.206 4.636,12.74 7.135,18.537l-13.9 -25.022c-1.861,-3.328 -4.205,-10.101 -7.723,-11.832 -1.657,-0.815 -2.622,-1.493 -4.278,-2.333 -2.701,-1.371 -5.687,-2.947 -8.45,-4.436 -4.823,-2.6 -6.8,-2.77 -7.491,-5.813 -0.766,-3.373 -1.516,-7.215 -2.021,-10.592l14.234 5.585c2.335,0.847 2.659,0.534 3.468,2.674 1.866,4.931 0.788,5.21 3.165,6.869 6.478,4.52 6.676,2.445 8.569,7.488 2.474,6.587 4.658,12.047 7.292,18.875zm22.452 -20.654l-3.952 16.95c-1.071,-5.668 -0.762,-9.388 -2.933,-15.103 -1.976,-5.2 -5.524,-5.597 -9.841,-8.271 -2.105,-1.304 -0.881,-0.685 -2.424,-2.327 -5.923,-6.306 -1.035,-5.224 -6.484,-6.917 -3.702,-1.151 -3.968,-0.191 -5.232,-3.734 -0.752,-2.108 -1.664,-4.015 -2.159,-6.198l37.499 13.095c0.791,1.317 11.357,55.162 11.382,58.778 -6.734,-2.764 -5.288,-2.792 -6.716,-8.678 -1.885,-7.776 -7.524,-33.934 -9.14,-37.595zm-53.775 -38.851c-0.161,-10.086 -9.744,-22.061 -10.602,-24.081l6.158 4.839c0.913,0.766 5.632,4.385 5.873,5.269l-1.429 13.973zm30.596 -18.194c-8.431,-4.619 -7.277,-2.949 -7.881,-7.733 -1.085,-8.596 -4.67,-16.936 -8.097,-23.291 -1.398,-2.595 -7.545,-11.632 -9.792,-13.992 -1.575,-1.656 -2.203,-2.87 -3.497,-4.115 -1.794,-1.726 -2.641,-1.941 -4.178,-3.902l-12.562 -10.614c5.82,1.484 21.087,12.542 24.07,15.763 1.51,1.632 2.111,2.586 3.653,3.934 4.161,3.636 2.685,2.945 5.687,6.183 8.212,8.858 19.099,28.904 23.071,43.558l-10.474 -5.791zm30.965 16.218c-5.903,-1.429 -4.322,-1.904 -6.635,-10.524 -1.191,-4.441 -2.697,-8.882 -4.149,-13.005 -6.409,-18.197 -13.493,-29.725 -24.696,-43.734 -1.085,-1.356 -0.599,-0.866 -2.052,-2.228 -0.896,-0.841 -1.23,-1.364 -2.002,-2.279 -4.152,-4.919 -11.869,-10.45 -13.403,-12.2 3.667,1.48 11.324,7.949 14.928,11.149l8.229 8.848c14.186,16.026 24.946,42.65 29.78,63.973zm-107.993 -103.386c0.099,0.09 0.24,0.194 0.316,0.249 0.076,0.053 0.223,0.175 0.317,0.238l1.613 0.889c0.823,0.379 1.387,0.584 2.254,1.014 1.493,0.742 2.654,1.593 4.081,2.047 2.718,0.866 7.119,1.525 10.202,2.293 13.688,3.413 26.275,10.459 37.201,18.808l6.741 5.622c3.719,2.838 6.006,6.236 9.369,9.62l5.436 6.94c3.17,4.2 7.029,9.954 9.484,15.261 2.61,5.641 5.22,10.719 7.56,17.124 2.382,6.521 3.776,13.009 5.026,19.98l-0.716 -0.407c-9.87,-5.972 -6.237,-1.595 -10.001,-13.894 -4.036,-13.19 -11.3,-28.062 -20.544,-38.37 -0.663,-0.739 -0.618,-0.746 -1.244,-1.616 -1.859,-2.587 -7.909,-7.766 -9.293,-9.256 -0.609,-0.656 -0.629,-0.924 -1.298,-1.537l-3.472 -2.718c-8.552,-7.281 -19.053,-12.465 -30.026,-16.101 -13.316,-4.413 -28.899,-6.342 -43.667,-5.855 1.62,1.202 13.324,3.962 15.462,4.659 4.364,1.424 9.264,3.351 13.404,5.603 6.959,3.788 14.345,7.789 20.49,12.744l7.348 6.915c1.819,1.952 3.158,2.321 4.859,4.648 2.753,3.77 5.129,6.072 8.212,10.779 9.284,14.17 13.503,23.212 10.766,39.456 -0.328,1.944 -3.519,7.105 -4.632,8.27 -1.627,-3.169 -2.012,-8.75 -3.277,-12.458 -0.779,-2.281 -1.795,-3.382 -3.161,-4.516l-20.526 -17.172c-0.768,2.438 -1.157,5.598 -1.672,8.222 -0.839,4.286 -0.079,3.671 1.66,7.094 2.256,4.441 4.324,8.51 6.406,12.609 1.288,2.537 3.012,7.723 5.398,8.876 1.135,0.548 2.301,0.923 3.378,1.385 2.316,0.996 4.374,1.431 5.254,4.227 0.626,1.988 1.767,5.112 2.018,7.007 -1.07,-0.325 -16.531,-7.411 -16.922,-7.738 -1.885,-1.572 -10.682,-20.681 -12.917,-25.115 -2.528,-5.015 -2.505,-3.337 -1.332,-9.267 0.609,-3.083 3.28,-19.272 4.238,-20.569 1.606,0.778 1.163,1.17 2.738,2.315l10.627 8.89c1.044,0.959 1.394,1.702 2.637,2.191 4.714,1.86 8.471,-2.762 2.696,-10.874 -8.528,-11.98 -39.029,-14.857 -51.867,-14.872 -5.768,-0.007 -32.42,0.641 -35.539,2.502 8.029,3.639 15.055,7.725 22.624,12.04 5.124,2.921 9.221,6.35 13.824,9.942 4.249,3.316 5.351,4.799 7.341,6.435 3.103,2.551 5.64,5.922 8.478,8.644l6.173 7.119c1.049,1.273 1.854,2.384 2.905,3.761 8.131,10.658 14.035,23.522 18.491,36.128 1.242,3.516 2.434,6.971 3.367,10.511 0.74,2.808 1.147,8.194 3.48,9.799l8.56 5.208c4.856,2.455 6.034,-0.893 6.278,-5.44 1.811,2.405 2.834,6.041 4.096,8.83 3.876,8.575 8.339,16.421 12.888,24.666 2.664,4.827 10.51,20.941 13.787,24.25 1.145,1.155 4.967,5.55 6.534,5.905 -0.848,-3.597 -5.871,-9.734 -6.783,-13.508 1.985,1.858 4.033,3.196 5.484,4.765 1.504,1.626 9.315,9.185 10.33,9.467 0.992,0.275 6.846,-0.857 8.35,-1.192 1.12,-2.796 1.865,-5.313 2.857,-8.085 1.343,-3.754 2.627,-3.306 4.634,-6.097 -1.72,-11.044 -2.363,-24.643 -3.356,-36.036 -1.023,-11.741 -2.363,-23.403 -3.437,-34.759 1.372,1.772 0.772,3.228 4.099,2.334 2.554,-3.375 0.021,-7.995 -1.028,-11.759 -1.118,-4.012 -2.2,-8.126 -3.504,-12.167 -8.404,-26.04 -11.119,-42.723 -28.276,-65.401l-15.097 -16.27c-0.58,-0.47 -0.885,-0.546 -1.453,-0.949 -1.313,-0.93 -0.166,-0.115 -1.038,-0.859 -0.807,-0.689 0.178,0.049 -1.046,-0.851 -0.511,-0.376 -0.616,-0.4 -1.12,-0.787 -16.121,-12.383 -42.857,-22.222 -63.527,-21.786z"/>
    <path class="fil2" d="M255.158 296.285c0.059,-0.076 0.157,-0.202 0.222,-0.285l4.668 -5.693c0.965,1.135 2.791,7.512 2.866,9.472 0.063,1.643 -0.936,2.833 -1.749,4.361l-2.819 3.929c-0.076,-2.392 -2.527,-8.556 -3.627,-11.187l0.439 -0.597zm-109.728 -74.636c20.67,-0.436 47.406,9.403 63.527,21.786 0.504,0.387 0.609,0.411 1.12,0.787 1.224,0.9 0.239,0.162 1.046,0.851 0.872,0.744 -0.275,-0.071 1.038,0.859 0.568,0.403 0.873,0.479 1.453,0.949l15.097 16.27c17.157,22.678 19.872,39.361 28.276,65.401 1.304,4.041 2.386,8.155 3.504,12.167 1.049,3.764 3.582,8.384 1.028,11.759 -3.327,0.894 -2.727,-0.562 -4.099,-2.334 1.074,11.356 2.414,23.018 3.437,34.759 0.993,11.393 1.636,24.992 3.356,36.036 -2.007,2.791 -3.291,2.343 -4.634,6.097 -0.992,2.772 -1.737,5.289 -2.857,8.085 -1.504,0.335 -7.358,1.467 -8.35,1.192 -1.015,-0.282 -8.826,-7.841 -10.33,-9.467 -1.451,-1.569 -3.499,-2.907 -5.484,-4.765 0.912,3.774 5.935,9.911 6.783,13.508 -1.567,-0.355 -5.389,-4.75 -6.534,-5.905 -3.277,-3.309 -11.123,-19.423 -13.787,-24.25 -4.549,-8.245 -9.012,-16.091 -12.888,-24.666 -1.262,-2.789 -2.285,-6.425 -4.096,-8.83 -0.244,4.547 -1.422,7.895 -6.278,5.44l-8.56 -5.208c-2.333,-1.605 -2.74,-6.991 -3.48,-9.799 -0.933,-3.54 -2.125,-6.995 -3.367,-10.511 -4.456,-12.606 -10.36,-25.47 -18.491,-36.128 -1.051,-1.377 -1.856,-2.488 -2.905,-3.761l-6.173 -7.119c-2.838,-2.722 -5.375,-6.093 -8.478,-8.644 -1.99,-1.636 -3.092,-3.119 -7.341,-6.435 -4.603,-3.592 -8.7,-7.021 -13.824,-9.942 -7.569,-4.315 -14.595,-8.401 -22.624,-12.04 3.119,-1.861 29.771,-2.509 35.539,-2.502 12.838,0.015 43.339,2.892 51.867,14.872 5.775,8.112 2.018,12.734 -2.696,10.874 -1.243,-0.489 -1.593,-1.232 -2.637,-2.191l-10.627 -8.89c-1.575,-1.145 -1.132,-1.537 -2.738,-2.315 -0.958,1.297 -3.629,17.486 -4.238,20.569 -1.173,5.93 -1.196,4.252 1.332,9.267 2.235,4.434 11.032,23.543 12.917,25.115 0.391,0.327 15.852,7.413 16.922,7.738 -0.251,-1.895 -1.392,-5.019 -2.018,-7.007 -0.88,-2.796 -2.938,-3.231 -5.254,-4.227 -1.077,-0.462 -2.243,-0.837 -3.378,-1.385 -2.386,-1.153 -4.11,-6.339 -5.398,-8.876 -2.082,-4.099 -4.15,-8.168 -6.406,-12.609 -1.739,-3.423 -2.499,-2.808 -1.66,-7.094 0.515,-2.624 0.904,-5.784 1.672,-8.222l20.526 17.172c1.366,1.134 2.382,2.235 3.161,4.516 1.265,3.708 1.65,9.289 3.277,12.458 1.113,-1.165 4.304,-6.326 4.632,-8.27 2.737,-16.244 -1.482,-25.286 -10.766,-39.456 -3.083,-4.707 -5.459,-7.009 -8.212,-10.779 -1.701,-2.327 -3.04,-2.696 -4.859,-4.648l-7.348 -6.915c-6.145,-4.955 -13.531,-8.956 -20.49,-12.744 -4.14,-2.252 -9.04,-4.179 -13.404,-5.603 -2.138,-0.697 -13.842,-3.457 -15.462,-4.659 14.768,-0.487 30.351,1.442 43.667,5.855 10.973,3.636 21.474,8.82 30.026,16.101l3.472 2.718c0.669,0.613 0.689,0.881 1.298,1.537 1.384,1.49 7.434,6.669 9.293,9.256 0.626,0.87 0.581,0.877 1.244,1.616 9.244,10.308 16.508,25.18 20.544,38.37 3.764,12.299 0.131,7.922 10.001,13.894l0.716 0.407c-1.25,-6.971 -2.644,-13.459 -5.026,-19.98 -2.34,-6.405 -4.95,-11.483 -7.56,-17.124 -2.455,-5.307 -6.314,-11.061 -9.484,-15.261l-5.436 -6.94c-3.363,-3.384 -5.65,-6.782 -9.369,-9.62l-6.741 -5.622c-10.926,-8.349 -23.513,-15.395 -37.201,-18.808 -3.083,-0.768 -7.484,-1.427 -10.202,-2.293 -1.427,-0.454 -2.588,-1.305 -4.081,-2.047 -0.867,-0.43 -1.431,-0.635 -2.254,-1.014l-1.613 -0.889c-0.094,-0.063 -0.241,-0.185 -0.317,-0.238 -0.076,-0.055 -0.217,-0.159 -0.316,-0.249zm-34.908 6.028c-3.835,0.964 -14.372,4.174 -16.53,6.945 21.215,-0.874 63.053,12.016 78.578,28.477 -33.341,-9.542 -65.139,-4.609 -98.505,1.904 1.565,1.207 5.896,2.317 7.976,3.161 7.919,3.213 14.249,5.367 22.446,9.46 14.003,6.994 26.987,16.059 37.75,26.37 3.666,3.511 11.792,13.324 14.689,17.617 4.467,6.617 8.217,12.565 11.556,20.282 16.869,38.987 0.835,27.155 29.428,45.699 3.986,2.585 4.318,1.971 5.744,4.704 3.677,7.048 11.943,21.343 15.015,27.758 6.244,13.04 5.973,11.801 13.062,18.791 2.897,2.857 1.883,3.542 6.973,3.542 8.115,-0.001 5.227,1.02 8.113,1.238l15.156 -2.247c2.108,-1.685 1.457,-11.103 9.562,-17.062 -0.536,-6.326 -5.711,-58.055 -4.904,-61.507 1.895,-8.109 4.39,-11.815 2.613,-18.045 -1.648,-5.78 -3.104,-11.481 -4.868,-17.437 -2.81,-9.486 -1.871,-7.959 1.954,-16.622 3.914,-8.867 3.856,-6.607 1.092,-16.858 -1.383,-5.131 -2.767,-12.518 -4.514,-17.302 -1.638,1.466 -1.578,1.597 -2.884,3.178 -0.907,1.1 -1.805,2.116 -2.624,3.076l-5.403 6.349c-3.931,-4.873 -11.235,-30.888 -38.024,-51.192 -19.02,-14.417 -40.476,-23.198 -70.333,-23.198 -8.451,0 -23.384,2.033 -31.828,4.624 -0.698,0.213 -1.555,0.425 -2.193,0.655 -1.601,0.576 -0.592,0 -1.748,0.865 6.461,0.692 18.96,1.64 23.904,3.985 -7.427,0.276 -14.128,0.998 -21.253,2.79z"/>
    <path class="fil3" d="M214.938 418.803c-2.708,3.368 -5.282,11.135 -6.194,16.402 -3.164,18.281 2.491,39.663 18.567,48.154 -1.432,-3.023 -3.823,-5.813 -4.319,-10.148 -0.311,-2.718 0.242,-10.189 1.318,-12.302 1.705,9.236 1.724,15.645 7.208,21.853 4.301,4.867 9.961,8.547 18.232,10.867 -1.346,-2.048 -2.827,-3.372 -4.248,-5.315 -5.779,-7.902 -5.359,-13.77 -5.293,-22.699 1.68,1.713 2.079,4.379 8.25,6.89 4.063,1.652 9.181,0.977 12.88,-0.887 -4.037,-2.065 -8.935,0.202 -12.255,-12.578 -0.815,-3.14 -1.757,-7.192 -3.075,-9.762 -2.089,-4.07 -4.117,-4.898 -7.289,-4.872 -7.203,0.057 -4.69,0.508 -8.801,-3.284 -1.99,-1.835 -4.828,-3.942 -6.062,-6.271l-8.919 -16.048z"/>
    <path class="fil4" d="M235.668 359.23c-3.069,-0.795 -6.827,-2.88 -7.234,-6.666l3.44 1.125c0.856,3.269 -0.011,1.975 2.644,4.419 0.081,0.075 0.196,0.181 0.271,0.252l0.879 0.87zm6.017 23.582l3.952 -16.95c1.616,3.661 7.255,29.819 9.14,37.595 1.428,5.886 -0.018,5.914 6.716,8.678 -0.025,-3.616 -10.591,-57.461 -11.382,-58.778l-37.499 -13.095c0.495,2.183 1.407,4.09 2.159,6.198 1.264,3.543 1.53,2.583 5.232,3.734 5.449,1.693 0.561,0.611 6.484,6.917 1.543,1.642 0.319,1.023 2.424,2.327 4.317,2.674 7.865,3.071 9.841,8.271 2.171,5.715 1.862,9.435 2.933,15.103z"/>
    <path class="fil5" d="M232.932 314.608c-3.972,-14.654 -14.859,-34.7 -23.071,-43.558 -3.002,-3.238 -1.526,-2.547 -5.687,-6.183 -1.542,-1.348 -2.143,-2.302 -3.653,-3.934 -2.983,-3.221 -18.25,-14.279 -24.07,-15.763l12.562 10.614c1.537,1.961 2.384,2.176 4.178,3.902 1.294,1.245 1.922,2.459 3.497,4.115 2.247,2.36 8.394,11.397 9.792,13.992 3.427,6.355 7.012,14.695 8.097,23.291 0.604,4.784 -0.55,3.114 7.881,7.733l10.474 5.791z"/>
    <path class="fil5" d="M230.32 405.053c-2.499,-5.797 -4.74,-12.331 -7.135,-18.537 -2.634,-6.828 -4.818,-12.288 -7.292,-18.875 -1.893,-5.043 -2.091,-2.968 -8.569,-7.488 -2.377,-1.659 -1.299,-1.938 -3.165,-6.869 -0.809,-2.14 -1.133,-1.827 -3.468,-2.674l-14.234 -5.585c0.505,3.377 1.255,7.219 2.021,10.592 0.691,3.043 2.668,3.213 7.491,5.813 2.763,1.489 5.749,3.065 8.45,4.436 1.656,0.84 2.621,1.518 4.278,2.333 3.518,1.731 5.862,8.504 7.723,11.832l13.9 25.022z"/>
    <path class="fil5" d="M253.423 325.035c-4.834,-21.323 -15.594,-47.947 -29.78,-63.973l-8.229 -8.848c-3.604,-3.2 -11.261,-9.669 -14.928,-11.149 1.534,1.75 9.251,7.281 13.403,12.2 0.772,0.915 1.106,1.438 2.002,2.279 1.453,1.362 0.967,0.872 2.052,2.228 11.203,14.009 18.287,25.537 24.696,43.734 1.452,4.123 2.958,8.564 4.149,13.005 2.313,8.62 0.732,9.095 6.635,10.524z"/>
    <path class="fil6" d="M254.719 296.882c1.1,2.631 3.551,8.795 3.627,11.187l2.819 -3.929c0.813,-1.528 1.812,-2.718 1.749,-4.361 -0.075,-1.96 -1.901,-8.337 -2.866,-9.472l-4.668 5.693c-0.065,0.083 -0.163,0.209 -0.222,0.285l-0.439 0.597z"/>
    <path class="fil4" d="M191.862 327.011l1.429 -13.973c-0.241,-0.884 -4.96,-4.503 -5.873,-5.269l-6.158 -4.839c0.858,2.02 10.441,13.995 10.602,24.081z"/>
    <path class="fil7" d="M235.668 359.23l-0.879 -0.87c-0.075,-0.071 -0.19,-0.177 -0.271,-0.252 -2.655,-2.444 -1.788,-1.15 -2.644,-4.419l-3.44 -1.125c0.407,3.786 4.165,5.871 7.234,6.666z"/>
   </g>
   <circle class="fil8 str1" cx="208.945" cy="339.612" r="63.063"/>
   <rect class="fil8 str1" x="103.839" y="4.547" width="211.486" height="120.635"/>
   <rect class="fil8 str1" x="104.795" y="556.83" width="211.486" height="120.635"/>
   <rect class="fil8 str1" x="155.979" y="4.547" width="104.279" height="59.482"/>
   <rect class="fil8 str1" x="157.382" y="617.664" width="104.279" height="59.482"/>
   <line class="fil8 str1" x1="3.752" y1="340.171" x2="419.079" y2= "340.171" />
   <path class="fil8 str1" d="M3.752 24.976c6.047,1.227 12.263,-1.116 15.996,-6.029 3.733,-4.912 4.326,-11.528 1.525,-17.025"/>
   <path class="fil8 str1" d="M414.861 21.666c-6.048,1.226 -12.263,-1.116 -15.996,-6.029 -3.734,-4.913 -4.326,-11.528 -1.525,-17.026"/>
   <path class="fil8 str1" d="M416.453 654.922c-6.047,-1.227 -12.262,1.116 -15.996,6.029 -3.733,4.912 -4.326,11.528 -1.525,17.026"/>
   <path class="fil8 str1" d="M5.344 658.232c6.048,-1.226 12.263,1.116 15.996,6.029 3.733,4.912 4.326,11.528 1.525,17.026"/>
   <path class="fil8 str1" d="M158.468 125.182c9.555,19.226 29.173,31.383 50.642,31.383 21.469,0 41.087,-12.157 50.642,-31.383"/>
   <circle class="fil9" cx="209.769" cy="340.225" r="5.072"/>
   <circle class="fil9" cx="209.709" cy="95.447" r="3.54"/>
   <circle class="fil9" cx="209.86" cy="586.259" r="3.54"/>
   <path class="fil8 str1" d="M159.499 557.001c9.555,-19.227 29.173,-31.384 50.642,-31.384 21.47,0 41.088,12.157 50.642,31.384"/>
  </g>
 </g>
</svg>
